<?xml version="1.0" encoding="UTF-8" standalone="no"?>
<svg width="66px" height="19px" viewBox="0 0 66 19" version="1.1" xmlns="http://www.w3.org/2000/svg" xmlns:xlink="http://www.w3.org/1999/xlink">
    <!-- Generator: sketchtool 3.7.2 (28276) - http://www.bohemiancoding.com/sketch -->
    <title>A3CA7028-ACE4-42C7-B906-E97AFDF9B046</title>
    <desc>Created with sketchtool.</desc>
    <defs></defs>
    <g id="Symbols" stroke="none" stroke-width="1" fill="none" fill-rule="evenodd">
        <g id="Footer" transform="translate(-70.000000, -16.000000)">
            <g id="TIM-Logo" transform="translate(70.000000, 16.000000)">
                <path d="M37.9038,0 C38.2528,0 38.3228,0.049 38.3228,1.352 L38.3228,2.557 C38.3228,3.809 38.2308,3.957 37.9038,3.957 L33.9428,3.957 L33.9428,18.04 C33.9428,18.359 33.5708,18.433 32.2428,18.433 L31.5448,18.433 C30.1928,18.433 29.9598,18.359 29.9598,18.04 L29.9598,3.957 L25.9998,3.957 C25.6728,3.957 25.5798,3.859 25.5798,2.557 L25.5798,1.352 C25.5798,0 25.6498,0 25.9998,0 L37.9038,0 Z M45.0098,0.393 C45.0098,0.123 44.6368,0 43.3548,0 L42.6108,0 C41.2588,0 41.0258,0.123 41.0258,0.393 L41.0258,18.04 C41.0258,18.359 41.2588,18.433 42.6108,18.433 L43.3548,18.433 C44.6368,18.433 45.0098,18.359 45.0098,18.04 L45.0098,0.393 Z M64.3458,0 L63.1808,0 C61.6898,0 61.5968,0.172 61.4798,0.442 L59.1738,6.292 C58.4048,8.234 57.6128,10.322 57.3108,11.403 C57.0308,10.322 56.5178,8.872 55.4458,6.194 L53.1398,0.442 C53.0008,0.098 52.4178,0 51.1598,0 L49.8558,0 C48.5748,0 48.3178,0.123 48.3178,0.393 L48.3178,18.04 C48.3178,18.359 48.5748,18.433 49.9018,18.433 L50.6238,18.433 C51.9288,18.433 52.3018,18.359 52.3018,18.04 L52.3018,7.57 L52.3948,7.57 C52.3948,7.57 52.5118,8.061 52.6968,8.503 L55.3538,15.066 C55.4698,15.36 55.6098,15.484 56.8448,15.484 L57.6368,15.484 C58.8948,15.484 58.9878,15.386 59.1038,15.066 L61.5268,8.749 C61.7598,8.16 61.9228,7.57 61.9228,7.57 L62.0168,7.57 L62.0168,18.04 C62.0168,18.359 62.2728,18.433 63.6468,18.433 L64.3458,18.433 C65.6278,18.433 65.9998,18.359 65.9998,18.04 L65.9998,0.393 C65.9998,0.123 65.6278,0 64.3458,0 L64.3458,0 Z" id="Fill-1" fill="#004990"></path>
                <path d="M19.9049,3.9449 L1.0059,3.9449 C0.7259,3.9449 0.4739,3.8249 0.2919,3.6319 C0.1119,3.4399 -0.0001,3.1759 -0.0001,2.8849 L-0.0001,1.0639 C-0.0001,0.7709 0.1129,0.5059 0.2939,0.3139 C0.4749,0.1219 0.7269,0.0029 1.0059,0.0029 L19.9049,0.0029 C20.1849,0.0029 20.4369,0.1239 20.6199,0.3169 C20.7989,0.5089 20.9099,0.7729 20.9099,1.0639 L20.9099,2.8849 C20.9099,3.1759 20.7989,3.4389 20.6189,3.6309 C20.4369,3.8239 20.1849,3.9449 19.9049,3.9449 L19.9049,3.9449 Z M8.3639,7.2459 L1.0059,7.2459 C0.7269,7.2459 0.4749,7.3649 0.2939,7.5569 C0.1129,7.7489 -0.0001,8.0139 -0.0001,8.3059 L-0.0001,10.1269 C-0.0001,10.4189 0.1119,10.6829 0.2919,10.8749 C0.4739,11.0679 0.7259,11.1879 1.0059,11.1879 L8.3639,11.1879 L8.3639,7.2459 Z M20.6199,7.5599 C20.4369,7.3669 20.1849,7.2459 19.9049,7.2459 L12.5459,7.2459 L12.5459,11.1879 L19.9049,11.1879 C20.1849,11.1879 20.4369,11.0669 20.6189,10.8739 C20.7989,10.6819 20.9099,10.4179 20.9099,10.1269 L20.9099,8.3059 C20.9099,8.0149 20.7989,7.7519 20.6199,7.5599 L20.6199,7.5599 Z M20.6199,14.8019 C20.4369,14.6089 20.1849,14.4889 19.9049,14.4889 L12.5459,14.4889 L12.5459,18.4299 L19.9049,18.4299 C20.1849,18.4299 20.4369,18.3099 20.6189,18.1169 C20.7989,17.9249 20.9099,17.6609 20.9099,17.3699 L20.9099,15.5479 C20.9099,15.2579 20.7989,14.9939 20.6199,14.8019 L20.6199,14.8019 Z M8.3639,14.4889 L1.0059,14.4889 C0.7269,14.4889 0.4749,14.6069 0.2939,14.7999 C0.1129,14.9919 -0.0001,15.2569 -0.0001,15.5489 L-0.0001,17.3699 C-0.0001,17.6619 0.1119,17.9249 0.2919,18.1169 C0.4739,18.3109 0.7259,18.4299 1.0059,18.4299 L8.3639,18.4299 L8.3639,14.4889 Z" id="Fill-4" fill="#EB0029"></path>
            </g>
        </g>
    </g>
</svg>
